# xmcd
#
# Track frame offsets:
#	150
#	14234
#	25217
#	36942
#	47745
#	59768
#	70635
#	81890
#	95146
#	109477
#	119800
#	132860
#	143492
#	156650
#	168906
#	180289
#	195094
#	209135
#	221446
#	235148
#	249072
#	260016
#	269753
#	282317
#	293141
#	304643
#	314542
#
# Disc length: 4385 seconds
#
# Revision: 0
# Processed by: cddbd v1.4PL0 Copyright (c) Steve Scherf et al.
# Submitted via: EasyCDDAExtractor 4.6.0.1
#
DISCID=a2111f1b
DTITLE=Various Artist - M-G-M Doo-Wop #5
DYEAR=1900
DGENRE=Blues
TTITLE0=Herb Kenny and The Rockets - I Miss You So
TTITLE1=Ramblers - Rickey Do Rickey Do
TTITLE2=Johnny Oliver - Lemonade Baby
TTITLE3=Danny Winchell - I Do I Do
TTITLE4=Herb Kenny and The Rockets - Calling You
TTITLE5=Serenaders - Wonder In My Heart (unr)
TTITLE6=Varieteers - You Don't Love Me No More
TTITLE7=Herb Kenny and The Rockets - I Don't Care
TTITLE8=Johnny Oliver - Darling Is It True
TTITLE9=Kartunes - Willie The Weeper
TTITLE10=Ramblers - Vadunt-Un-Va-Da Song
TTITLE11=Serenaders - I Wrote A Letter
TTITLE12=Varieteers - I'll Try To Forget I Loved You
TTITLE13=Herb Kenny and The Rockets - My Song
TTITLE14=Kartunes - Dedicated To Love
TTITLE15=Serenaders - My Love (unr)
TTITLE16=Herb Kenny and The Rockets - Do I Have To Tell You I'm Sorry
TTITLE17=Kartunes - Raindrops
TTITLE18=Ramblers - Bad Girl
TTITLE19=Herb Kenny and The Rockets - Don't Take My Word
TTITLE20=Serenaders - Give Me A Girl
TTITLE21=Herb Kenny and The Rockets - Take A Little, Leave A Little
TTITLE22=Johnny Oliver - I Must Have Love
TTITLE23=Ramblers - Please Bring Yourself Back Home
TTITLE24=Herb Kenny and The Rockets - You Never Heard A Word I Said
TTITLE25=Kartunes - Will You Marry Me
TTITLE26=Serenaders - Mom And Pop
EXTD=
EXTT0=
EXTT1=
EXTT2=
EXTT3=
EXTT4=
EXTT5=
EXTT6=
EXTT7=
EXTT8=
EXTT9=
EXTT10=
EXTT11=
EXTT12=
EXTT13=
EXTT14=
EXTT15=
EXTT16=
EXTT17=
EXTT18=
EXTT19=
EXTT20=
EXTT21=
EXTT22=
EXTT23=
EXTT24=
EXTT25=
EXTT26=
PLAYORDER=
